<svg width="24" height="24" viewBox="0 0 24 24" fill="none" xmlns="http://www.w3.org/2000/svg">
<g clip-path="url(#clip0_66_63)">
<path d="M15.3291 16.5255C15.329 16.8083 15.2166 17.0796 15.0166 17.2796C14.8166 17.4796 14.5454 17.5919 14.2625 17.592L7.47432 17.592C7.19148 17.5919 6.92024 17.4796 6.72024 17.2796C6.52024 17.0796 6.40786 16.8083 6.40782 16.5255L6.40782 9.73726C6.41268 9.45761 6.52718 9.19107 6.72666 8.99502C6.92614 8.79898 7.19463 8.68913 7.47432 8.68913C7.75401 8.68913 8.02251 8.79898 8.22199 8.99502C8.42147 9.19107 8.53597 9.45761 8.54083 9.73726L8.60569 13.8856L15.771 6.72027C15.9711 6.52023 16.2424 6.40785 16.5253 6.40785C16.8082 6.40785 17.0795 6.52023 17.2795 6.72027C17.4796 6.92031 17.592 7.19162 17.592 7.47452C17.592 7.75742 17.4796 8.02873 17.2795 8.22876L10.1142 15.3941L14.2625 15.459C14.5454 15.459 14.8166 15.5714 15.0166 15.7714C15.2166 15.9714 15.329 16.2426 15.3291 16.5255Z" fill="#FF0000"/>
</g>
<defs>
<clipPath id="clip0_66_63">
<rect width="16" height="16" fill="white" transform="translate(23.3135 12) rotate(135)"/>
</clipPath>
</defs>
</svg>
